<svg xmlns="http://www.w3.org/2000/svg" viewBox="0 0 20 20"><defs><style>.cls-1{fill:#68217a;}</style></defs><title>Asset 1</title><g id="Layer_2" data-name="Layer 2"><g id="Layer_1-2" data-name="Layer 1"><polygon class="cls-1" points="13.33 12.5 13.33 7.5 10 10 13.33 12.5"/><polygon class="cls-1" points="5 11.67 7.08 10 5 8.33 5 11.67"/><path class="cls-1" d="M18.33,0H1.67A1.67,1.67,0,0,0,0,1.67V18.33A1.67,1.67,0,0,0,1.67,20H18.33A1.67,1.67,0,0,0,20,18.33V1.67A1.67,1.67,0,0,0,18.33,0ZM16.25,15l-3,1.25-5-5L5,13.75l-1.25-.83V6.67L5,6.25l3.33,2.5,5-5L16.25,5Z"/></g></g></svg>